<svg xmlns="http://www.w3.org/2000/svg" viewBox="0 0 1440 320"><path fill="#ffff" fill-opacity="1" d="M0,160L26.7,181.3C53.3,203,107,245,160,261.3C213.3,277,267,267,320,224C373.3,181,427,107,480,106.7C533.3,107,587,181,640,197.3C693.3,213,747,171,800,133.3C853.3,96,907,64,960,69.3C1013.3,75,1067,117,1120,160C1173.3,203,1227,245,1280,229.3C1333.3,213,1387,139,1413,101.3L1440,64L1440,320L1413.3,320C1386.7,320,1333,320,1280,320C1226.7,320,1173,320,1120,320C1066.7,320,1013,320,960,320C906.7,320,853,320,800,320C746.7,320,693,320,640,320C586.7,320,533,320,480,320C426.7,320,373,320,320,320C266.7,320,213,320,160,320C106.7,320,53,320,27,320L0,320Z"></path></svg>